<svg width="1669" height="260" viewBox="0 0 1669 260" fill="none" xmlns="http://www.w3.org/2000/svg">
<path d="M1574.96 259.792C1555.95 259.792 1539 255.797 1524.1 247.807C1509.41 239.6 1497.86 228.371 1489.44 214.118C1481.23 199.649 1477.13 183.56 1477.13 165.852C1477.13 147.928 1481.12 131.732 1489.11 117.263C1497.1 102.578 1508.33 91.0244 1522.8 82.6022C1537.49 73.9641 1554.44 69.645 1573.66 69.645C1592.23 69.645 1608.75 73.8561 1623.22 82.2783C1637.69 90.4845 1648.81 102.038 1656.59 116.939C1664.58 131.84 1668.57 148.9 1668.57 168.12C1668.57 170.495 1668.36 174.49 1667.92 180.105H1536.08C1538.03 190.687 1542.89 198.677 1550.66 204.076C1558.44 209.475 1567.18 212.174 1576.9 212.174C1584.46 212.174 1591.26 210.555 1597.31 207.315C1603.35 203.86 1608 199.109 1611.24 193.062L1662.74 206.991C1656.26 223.188 1645.14 236.037 1629.38 245.539C1613.61 255.041 1595.47 259.792 1574.96 259.792ZM1612.21 146.093C1610.05 137.67 1605.51 130.76 1598.6 125.361C1591.91 119.962 1583.92 117.263 1574.63 117.263C1565.56 117.263 1557.46 119.962 1550.34 125.361C1543.43 130.76 1538.78 137.67 1536.41 146.093H1612.21Z" fill="black"/>
<path d="M1401.68 259.792C1379.87 259.792 1362.26 254.933 1348.88 245.215C1335.7 235.497 1327.39 222.432 1323.93 206.02L1379 196.626C1380.3 202.24 1382.78 206.883 1386.45 210.555C1390.12 214.226 1394.87 216.061 1400.7 216.061C1406.1 216.061 1410.42 214.766 1413.66 212.174C1416.9 209.367 1418.52 205.912 1418.52 201.809C1418.52 198.353 1417.22 195.546 1414.63 193.386C1412.26 191.227 1408.48 189.607 1403.3 188.527L1368.64 180.753C1357.19 178.162 1347.15 172.763 1338.51 164.557C1329.87 156.134 1325.55 144.473 1325.55 129.572C1325.55 117.911 1328.47 107.545 1334.3 98.4748C1340.13 89.4048 1348.44 82.3863 1359.24 77.4193C1370.04 72.2365 1382.67 69.645 1397.14 69.645C1417.22 69.645 1433.75 74.396 1446.7 83.898C1459.66 93.3999 1467.76 105.385 1471 119.854L1417.55 128.276C1416.69 123.093 1414.53 118.99 1411.07 115.967C1407.83 112.944 1403.62 111.432 1398.44 111.432C1393.47 111.432 1389.47 112.728 1386.45 115.319C1383.64 117.695 1382.24 120.718 1382.24 124.389C1382.24 127.629 1383.21 130.22 1385.16 132.164C1387.1 134.107 1390.45 135.619 1395.2 136.699L1421.76 142.529C1441.41 147.064 1455.34 154.083 1463.55 163.585C1471.97 173.087 1476.18 184.748 1476.18 198.569C1476.18 208.503 1473.59 218.221 1468.41 227.723C1463.22 237.009 1455.02 244.675 1443.79 250.722C1432.77 256.769 1418.74 259.792 1401.68 259.792Z" fill="black"/>
<path d="M1248.48 259.792C1226.67 259.792 1209.07 254.933 1195.68 245.215C1182.51 235.497 1174.19 222.432 1170.74 206.02L1225.81 196.626C1227.1 202.24 1229.58 206.883 1233.26 210.555C1236.93 214.226 1241.68 216.061 1247.51 216.061C1252.91 216.061 1257.23 214.766 1260.47 212.174C1263.7 209.367 1265.32 205.912 1265.32 201.809C1265.32 198.353 1264.03 195.546 1261.44 193.386C1259.06 191.227 1255.28 189.607 1250.1 188.527L1215.44 180.753C1203.99 178.162 1193.95 172.763 1185.31 164.557C1176.68 156.134 1172.36 144.473 1172.36 129.572C1172.36 117.911 1175.27 107.545 1181.1 98.4748C1186.93 89.4048 1195.25 82.3863 1206.05 77.4193C1216.84 72.2365 1229.48 69.645 1243.95 69.645C1264.03 69.645 1280.55 74.396 1293.51 83.898C1306.46 93.3999 1314.56 105.385 1317.8 119.854L1264.35 128.276C1263.49 123.093 1261.33 118.99 1257.87 115.967C1254.63 112.944 1250.42 111.432 1245.24 111.432C1240.27 111.432 1236.28 112.728 1233.26 115.319C1230.45 117.695 1229.04 120.718 1229.04 124.389C1229.04 127.629 1230.02 130.22 1231.96 132.164C1233.9 134.107 1237.25 135.619 1242 136.699L1268.56 142.529C1288.22 147.064 1302.14 154.083 1310.35 163.585C1318.77 173.087 1322.98 184.748 1322.98 198.569C1322.98 208.503 1320.39 218.221 1315.21 227.723C1310.03 237.009 1301.82 244.675 1290.59 250.722C1279.58 256.769 1265.54 259.792 1248.48 259.792Z" fill="black"/>
<path d="M1048.4 259.792C1031.34 259.792 1016.11 255.797 1002.73 247.807C989.337 239.6 978.863 228.371 971.305 214.118C963.746 199.649 959.967 183.345 959.967 165.204C959.967 146.848 963.746 130.436 971.305 115.967C978.863 101.282 989.337 89.9446 1002.73 81.9544C1016.33 73.7481 1031.56 69.645 1048.4 69.645C1061.14 69.645 1072.69 72.1285 1083.06 77.0954C1093.64 81.8464 1101.74 88.217 1107.36 96.2073H1108.65L1110.27 73.2083H1163.4V256.229H1110.27L1108.65 233.554H1107.36C1101.31 241.76 1093.1 248.239 1082.74 252.989C1072.37 257.525 1060.93 259.792 1048.4 259.792ZM1061.36 206.991C1073.67 206.991 1083.71 202.996 1091.48 195.006C1099.26 187.016 1103.14 176.974 1103.14 164.88C1103.14 153.003 1099.15 143.069 1091.16 135.079C1083.38 126.873 1073.45 122.77 1061.36 122.77C1054.01 122.77 1047.1 124.713 1040.63 128.6C1034.36 132.272 1029.29 137.346 1025.4 143.825C1021.73 150.304 1019.89 157.322 1019.89 164.88C1019.89 172.655 1021.73 179.781 1025.4 186.26C1029.29 192.738 1034.36 197.813 1040.63 201.485C1046.89 205.156 1053.8 206.991 1061.36 206.991Z" fill="black"/>
<path d="M887.179 153.219H809.112V256.229H746.269V3.56323H809.112V95.2355H887.179V3.56323H950.021V256.229H887.179V153.219Z" fill="black"/>
<path d="M600.301 126.981H576.006V73.2082H600.301V3.56323H660.552V73.2082H685.17V126.981H660.552V256.229H600.301V126.981Z" fill="black"/>
<path d="M411.257 73.2083H464.058L465.677 92.968H467.621C472.372 86.0575 478.527 80.4427 486.085 76.1236C493.643 71.8046 502.497 69.645 512.647 69.645C530.571 69.645 544.824 76.0156 555.406 88.7569C565.988 101.282 571.278 118.774 571.278 141.234V256.229H511.028V149.332C511.028 132.056 504.549 123.417 491.592 123.417C485.329 123.417 480.362 125.901 476.691 130.868C473.236 135.619 471.508 142.097 471.508 150.304V256.229H411.257V73.2083Z" fill="black"/>
<path d="M336.197 73.2082H396.448V256.229H336.197V73.2082ZM336.52 3.56323H396.448V58.9553H336.52V3.56323Z" fill="black"/>
<path d="M261.136 3.56323H321.387V256.229H261.136V3.56323Z" fill="black"/>
<path d="M130.868 259.792C105.817 259.792 83.2501 254.177 63.1664 242.948C43.2987 231.502 27.75 215.953 16.5204 196.302C5.50681 176.434 0 154.299 0 129.896C0 105.493 5.61479 83.466 16.8444 63.8142C28.0739 43.9465 43.5146 28.3979 63.1664 17.1683C83.0341 5.72276 104.953 0 128.924 0C158.078 0 183.56 7.34241 205.372 22.0272C227.399 36.7121 242.408 56.7958 250.398 82.2783L192.738 103.982C188.419 91.2403 180.645 80.9825 169.415 73.2082C158.186 65.4339 145.445 61.5467 131.192 61.5467C119.098 61.5467 107.977 64.5701 97.8269 70.6168C87.6771 76.6635 79.5789 84.8697 73.5322 95.2355C67.7014 105.601 64.786 117.155 64.786 129.896C64.786 143.069 67.8094 154.839 73.8561 165.204C79.9028 175.57 88.109 183.668 98.4748 189.499C108.841 195.114 120.502 197.921 133.459 197.921C147.496 197.921 159.914 194.358 170.711 187.232C181.725 180.105 189.175 170.279 193.062 157.754L251.694 175.57C243.488 201.701 228.587 222.324 206.991 237.441C185.612 252.342 160.237 259.792 130.868 259.792Z" fill="black"/>
</svg>
